<svg width="335" height="161" viewBox="0 0 335 161" fill="none" xmlns="http://www.w3.org/2000/svg">
<mask id="path-1-inside-1" fill="white">
<path fill-rule="evenodd" clip-rule="evenodd" d="M0 10C0 4.47716 4.47715 0 10 0H325C330.523 0 335 4.49108 335 10.0139V75.3504C334.938 75.3867 334.879 75.4307 334.822 75.4828L329.797 80.116C329.368 80.5121 329.368 81.1904 329.797 81.5864L334.822 86.2196C334.879 86.2717 334.938 86.3157 335 86.352V150.69C335 156.213 330.523 160.704 325 160.704H9.99999C4.47714 160.704 0 156.227 0 150.704V86.352C0.061723 86.3157 0.121344 86.2717 0.177878 86.2196L5.20269 81.5864C5.63218 81.1904 5.63218 80.5121 5.20269 80.116L0.177878 75.4828C0.121344 75.4307 0.061723 75.3867 0 75.3504V10Z"/>
</mask>
<path d="M335 75.3504L335.507 76.2126L336 75.9226V75.3504H335ZM334.822 75.4828L334.144 74.7476L334.144 74.7477L334.822 75.4828ZM329.797 80.116L329.119 79.3809V79.3809L329.797 80.116ZM329.797 81.5864L329.119 82.3215V82.3216L329.797 81.5864ZM334.822 86.2196L334.144 86.9548L334.144 86.9548L334.822 86.2196ZM335 86.352H336V85.7798L335.507 85.4899L335 86.352ZM0 86.352L-0.506789 85.4899L-1 85.7799V86.352H0ZM0.177878 86.2196L-0.5 85.4844L-0.500025 85.4844L0.177878 86.2196ZM5.20269 81.5864L4.52481 80.8512H4.52481L5.20269 81.5864ZM5.20269 80.116L4.52481 80.8512H4.52481L5.20269 80.116ZM0.177878 75.4828L-0.500025 76.218L-0.5 76.218L0.177878 75.4828ZM0 75.3504H-1V75.9226L-0.506789 76.2125L0 75.3504ZM10 -1C3.92487 -1 -1 3.92488 -1 10H1C1 5.02945 5.02944 1 10 1V-1ZM325 -1H10V1H325V-1ZM336 10.0139C336 3.94061 331.077 -1 325 -1V1C329.969 1 334 5.04155 334 10.0139H336ZM336 75.3504V10.0139H334V75.3504H336ZM335.5 76.2181C335.505 76.2135 335.507 76.2122 335.507 76.2126L334.493 74.4883C334.369 74.5612 334.252 74.6479 334.144 74.7476L335.5 76.2181ZM330.475 80.8512L335.5 76.218L334.144 74.7477L329.119 79.3809L330.475 80.8512ZM330.475 80.8512V80.8512L329.119 79.3809C328.26 80.1729 328.26 81.5295 329.119 82.3215L330.475 80.8512ZM335.5 85.4844L330.475 80.8512L329.119 82.3216L334.144 86.9548L335.5 85.4844ZM335.507 85.4899C335.507 85.4902 335.505 85.4889 335.5 85.4843L334.144 86.9548C334.252 87.0545 334.369 87.1412 334.493 87.2141L335.507 85.4899ZM336 150.69V86.352H334V150.69H336ZM325 161.704C331.077 161.704 336 156.764 336 150.69H334C334 155.663 329.969 159.704 325 159.704V161.704ZM9.99999 161.704H325V159.704H9.99999V161.704ZM-1 150.704C-1 156.779 3.92486 161.704 9.99999 161.704V159.704C5.02943 159.704 1 155.675 1 150.704H-1ZM-1 86.352V150.704H1V86.352H-1ZM-0.500025 85.4844C-0.50481 85.4888 -0.507168 85.4901 -0.506789 85.4899L0.506789 87.214C0.630614 87.1413 0.747498 87.0546 0.855781 86.9547L-0.500025 85.4844ZM4.52481 80.8512L-0.5 85.4844L0.855756 86.9548L5.88057 82.3216L4.52481 80.8512ZM4.52481 80.8512L4.52481 80.8512L5.88056 82.3216C6.73956 81.5295 6.73956 80.1729 5.88056 79.3809L4.52481 80.8512ZM-0.5 76.218L4.52481 80.8512L5.88056 79.3809L0.855756 74.7477L-0.5 76.218ZM-0.506789 76.2125C-0.507168 76.2123 -0.50481 76.2136 -0.500025 76.218L0.855781 74.7477C0.747498 74.6478 0.630614 74.5612 0.506789 74.4884L-0.506789 76.2125ZM-1 10V75.3504H1V10H-1Z" fill="#DF212D" mask="url(#path-1-inside-1)"/>
</svg>
